<svg xmlns="http://www.w3.org/2000/svg" role="img" viewBox="0 0 46 46"><title>btn_google_light_normal_ios</title><path fill="#4285f4" fill-rule="evenodd" d="M42.5 23.5c0-1.4-.1-2.8-.4-4.1h-19v7.8H34c-.5 2.5-1.9 4.7-4 6.1v5.1h6.5c3.8-3.5 6-8.7 6-14.9z" clip-rule="evenodd"/><path fill="#34a853" fill-rule="evenodd" d="M23.2 43.3c5.4 0 10-1.8 13.4-4.9L30 33.3c-1.8 1.2-4.1 1.9-6.8 1.9-5.3 0-9.7-3.5-11.3-8.3H5.2v5.2c3.2 6.6 10.1 11.2 18 11.2z" clip-rule="evenodd"/><path fill="#fbbc05" fill-rule="evenodd" d="M11.9 26.9c-.4-1.2-.6-2.5-.6-3.8s.2-2.6.6-3.8V14H5.2C3.8 16.7 3 19.8 3 23.1s.8 6.3 2.1 9.1l6.8-5.3z" clip-rule="evenodd"/><path fill="#ea4335" fill-rule="evenodd" d="M23.2 10.9c3 0 5.6 1 7.7 3l5.8-5.8c-3.5-3.3-8.1-5.3-13.5-5.3C15.3 2.9 8.4 7.4 5.1 14l6.7 5.2c1.7-4.7 6.1-8.3 11.4-8.3z" clip-rule="evenodd"/><path fill="none" d="M3 2.9h40.3v40.3H3V2.9z"/></svg>